#define uploader-1_width 64
#define uploader-1_height 64
static char uploader-1_bits[] = {
  0xF7, 0xBE, 0xEF, 0xFB, 0xBE, 0x55, 0x5D, 0x55, 0xAD, 0xAA, 0xAA, 0xAA, 
  0xAA, 0xA9, 0x96, 0xEA, 0x01, 0x00, 0x00, 0x00, 0x00, 0x00, 0x00, 0x80, 
  0x03, 0x00, 0x00, 0x00, 0x00, 0x00, 0x00, 0x40, 0x01, 0x00, 0x00, 0x00, 
  0x00, 0x00, 0x00, 0x80, 0x03, 0x00, 0x00, 0x00, 0x00, 0x00, 0x00, 0x80, 
  0x00, 0x00, 0x00, 0x00, 0x00, 0x00, 0x00, 0x40, 0x03, 0x00, 0x00, 0x00, 
  0x00, 0x00, 0x00, 0x80, 0x01, 0x00, 0x00, 0x00, 0x00, 0x00, 0x00, 0x80, 
  0x03, 0x00, 0x00, 0x00, 0x00, 0x00, 0x00, 0x80, 0x01, 0x00, 0x00, 0x00, 
  0x00, 0x00, 0x00, 0x40, 0x03, 0x00, 0x00, 0x00, 0x00, 0x00, 0x00, 0x80, 
  0x00, 0x00, 0x00, 0x00, 0x00, 0x00, 0x00, 0x80, 0x03, 0x00, 0x00, 0x00, 
  0x00, 0x00, 0x00, 0x80, 0x02, 0x00, 0x00, 0x80, 0x01, 0x00, 0x00, 0x40, 
  0x03, 0x00, 0x00, 0xC0, 0x03, 0x00, 0x00, 0x80, 0x01, 0x00, 0x00, 0xE0, 
  0x07, 0x00, 0x00, 0x80, 0x03, 0x00, 0x00, 0xF0, 0x0F, 0x00, 0x00, 0x80, 
  0x02, 0x00, 0x00, 0xF8, 0x1F, 0x00, 0x00, 0x40, 0x03, 0x00, 0x00, 0xFC, 
  0x3F, 0x00, 0x00, 0x80, 0x01, 0x00, 0x00, 0xFE, 0x7F, 0x00, 0x00, 0x80, 
  0x03, 0x00, 0x00, 0xDF, 0xFB, 0x00, 0x00, 0x80, 0x01, 0x00, 0x80, 0xCF, 
  0xF3, 0x01, 0x00, 0x40, 0x03, 0x00, 0xC0, 0xC7, 0xE3, 0x03, 0x00, 0x80, 
  0x02, 0x00, 0xE0, 0xC3, 0xC3, 0x07, 0x00, 0x80, 0x03, 0x00, 0xF0, 0x81, 
  0x83, 0x0F, 0x00, 0x80, 0x01, 0x00, 0xF8, 0xC0, 0x03, 0x1F, 0x00, 0x40, 
  0x03, 0x00, 0x7C, 0xC0, 0x03, 0x3E, 0x00, 0x80, 0x01, 0x00, 0x3E, 0xC0, 
  0x01, 0x7C, 0x00, 0x80, 0x03, 0x00, 0x1E, 0xC0, 0x03, 0x78, 0x00, 0x40, 
  0x02, 0x00, 0x0C, 0xC0, 0x03, 0x30, 0x00, 0x80, 0x03, 0x00, 0x00, 0x80, 
  0x03, 0x00, 0x00, 0x40, 0x01, 0x00, 0x00, 0xC0, 0x03, 0x00, 0x00, 0x80, 
  0x03, 0x00, 0x00, 0xC0, 0x03, 0x00, 0x00, 0x40, 0x01, 0x00, 0x00, 0xC0, 
  0x03, 0x00, 0x00, 0x80, 0x03, 0x00, 0x00, 0xC0, 0x03, 0x00, 0x00, 0x40, 
  0x02, 0x00, 0x00, 0xC0, 0x01, 0x00, 0x00, 0x80, 0x03, 0x00, 0x00, 0x80, 
  0x03, 0x00, 0x00, 0x40, 0x01, 0x00, 0x00, 0xC0, 0x03, 0x00, 0x00, 0x80, 
  0x03, 0x00, 0x00, 0xC0, 0x03, 0x00, 0x00, 0x40, 0x01, 0x00, 0x00, 0xC0, 
  0x03, 0x00, 0x00, 0x80, 0x03, 0x00, 0x00, 0xC0, 0x03, 0x00, 0x00, 0x40, 
  0x02, 0x00, 0x00, 0xC0, 0x03, 0x00, 0x00, 0x80, 0x03, 0x00, 0x00, 0x00, 
  0x00, 0x00, 0x00, 0x40, 0x01, 0x00, 0x00, 0x00, 0x00, 0x00, 0x00, 0x80, 
  0x03, 0x00, 0x00, 0x00, 0x00, 0x00, 0x00, 0x40, 0x01, 0x00, 0x00, 0x00, 
  0x00, 0x00, 0x00, 0x80, 0x03, 0x00, 0xFE, 0xFF, 0xFF, 0x7F, 0x00, 0x40, 
  0x02, 0x00, 0xFE, 0xFF, 0xFF, 0x7F, 0x00, 0x80, 0x03, 0x00, 0xFE, 0xFF, 
  0xFF, 0x7F, 0x00, 0x40, 0x01, 0x00, 0x00, 0x00, 0x00, 0x00, 0x00, 0x80, 
  0x03, 0x00, 0x00, 0x00, 0x00, 0x00, 0x00, 0x40, 0x01, 0x00, 0x00, 0x00, 
  0x00, 0x00, 0x00, 0x80, 0x03, 0x00, 0x00, 0x00, 0x00, 0x00, 0x00, 0x40, 
  0x02, 0x00, 0x00, 0x00, 0x00, 0x00, 0x00, 0x80, 0x03, 0x00, 0x00, 0x00, 
  0x00, 0x00, 0x00, 0x40, 0x01, 0x00, 0x00, 0x00, 0x00, 0x00, 0x00, 0x80, 
  0x03, 0x00, 0x00, 0x00, 0x00, 0x00, 0x00, 0x40, 0x01, 0x00, 0x00, 0x00, 
  0x00, 0x00, 0x00, 0x80, 0x03, 0x00, 0x00, 0x00, 0x00, 0x00, 0x00, 0x40, 
  0x02, 0x00, 0x00, 0x00, 0x00, 0x00, 0x00, 0x80, 0x03, 0x00, 0x00, 0x00, 
  0x00, 0x00, 0x00, 0x40, 0x96, 0x65, 0x59, 0x96, 0x65, 0x59, 0xAA, 0xA6, 
  0xDB, 0xB6, 0x6D, 0xDB, 0xB6, 0x6D, 0x55, 0x49, };
